<svg width="304" height="54" viewBox="0 0 304 54" fill="none" xmlns="http://www.w3.org/2000/svg">
<path d="M63.464 21.576C61.616 21.576 60.2 22.14 59.216 23.268C58.232 24.396 57.74 25.992 57.74 28.056C57.74 30.144 58.28 31.752 59.36 32.88C60.464 34.008 61.94 34.572 63.788 34.572C64.772 34.572 65.6 34.44 66.272 34.176C66.968 33.912 67.628 33.612 68.252 33.276C68.66 33.612 68.972 34.02 69.188 34.5C69.428 34.956 69.548 35.496 69.548 36.12C69.548 37.104 68.996 37.944 67.892 38.64C66.812 39.312 65.156 39.648 62.924 39.648C61.316 39.648 59.804 39.42 58.388 38.964C56.972 38.508 55.736 37.812 54.68 36.876C53.624 35.916 52.784 34.716 52.16 33.276C51.56 31.812 51.26 30.072 51.26 28.056C51.26 26.184 51.548 24.54 52.124 23.124C52.724 21.684 53.528 20.472 54.536 19.488C55.568 18.504 56.768 17.76 58.136 17.256C59.504 16.752 60.968 16.5 62.528 16.5C64.736 16.5 66.44 16.86 67.64 17.58C68.864 18.3 69.476 19.224 69.476 20.352C69.476 20.976 69.32 21.516 69.008 21.972C68.696 22.428 68.336 22.788 67.928 23.052C67.304 22.644 66.632 22.296 65.912 22.008C65.216 21.72 64.4 21.576 63.464 21.576ZM90.0894 30.252C90.0894 31.74 89.8614 33.072 89.4054 34.248C88.9494 35.4 88.3014 36.372 87.4614 37.164C86.6454 37.956 85.6614 38.556 84.5094 38.964C83.3574 39.372 82.0734 39.576 80.6574 39.576C79.2414 39.576 77.9574 39.36 76.8054 38.928C75.6534 38.496 74.6574 37.884 73.8174 37.092C73.0014 36.276 72.3654 35.292 71.9094 34.14C71.4534 32.988 71.2254 31.692 71.2254 30.252C71.2254 28.836 71.4534 27.552 71.9094 26.4C72.3654 25.248 73.0014 24.276 73.8174 23.484C74.6574 22.668 75.6534 22.044 76.8054 21.612C77.9574 21.18 79.2414 20.964 80.6574 20.964C82.0734 20.964 83.3574 21.192 84.5094 21.648C85.6614 22.08 86.6454 22.704 87.4614 23.52C88.3014 24.312 88.9494 25.284 89.4054 26.436C89.8614 27.588 90.0894 28.86 90.0894 30.252ZM77.4894 30.252C77.4894 31.716 77.7654 32.844 78.3174 33.636C78.8934 34.404 79.6854 34.788 80.6934 34.788C81.7014 34.788 82.4694 34.392 82.9974 33.6C83.5494 32.808 83.8254 31.692 83.8254 30.252C83.8254 28.812 83.5494 27.708 82.9974 26.94C82.4454 26.148 81.6654 25.752 80.6574 25.752C79.6494 25.752 78.8694 26.148 78.3174 26.94C77.7654 27.708 77.4894 28.812 77.4894 30.252ZM101.463 20.964C102.447 20.964 103.407 21.108 104.343 21.396C105.303 21.66 106.131 22.068 106.827 22.62C107.547 22.14 108.351 21.744 109.239 21.432C110.151 21.12 111.243 20.964 112.515 20.964C113.427 20.964 114.315 21.084 115.179 21.324C116.067 21.564 116.847 21.948 117.519 22.476C118.215 22.98 118.767 23.664 119.175 24.528C119.583 25.368 119.787 26.4 119.787 27.624V38.964C119.547 39.036 119.163 39.108 118.635 39.18C118.131 39.252 117.603 39.288 117.051 39.288C116.523 39.288 116.043 39.252 115.611 39.18C115.203 39.108 114.855 38.964 114.567 38.748C114.279 38.532 114.051 38.244 113.883 37.884C113.739 37.5 113.667 37.008 113.667 36.408V27.804C113.667 27.084 113.463 26.568 113.055 26.256C112.647 25.92 112.095 25.752 111.399 25.752C111.063 25.752 110.703 25.836 110.319 26.004C109.935 26.148 109.647 26.304 109.455 26.472C109.479 26.568 109.491 26.664 109.491 26.76C109.491 26.832 109.491 26.904 109.491 26.976V38.964C109.227 39.036 108.831 39.108 108.303 39.18C107.799 39.252 107.283 39.288 106.755 39.288C106.227 39.288 105.747 39.252 105.315 39.18C104.907 39.108 104.559 38.964 104.271 38.748C103.983 38.532 103.755 38.244 103.587 37.884C103.443 37.5 103.371 37.008 103.371 36.408V27.804C103.371 27.084 103.143 26.568 102.687 26.256C102.255 25.92 101.727 25.752 101.103 25.752C100.671 25.752 100.299 25.824 99.9871 25.968C99.6751 26.088 99.4111 26.208 99.1951 26.328V38.964C98.9551 39.036 98.5711 39.108 98.0431 39.18C97.5391 39.252 97.0111 39.288 96.4591 39.288C95.9311 39.288 95.4511 39.252 95.0191 39.18C94.6111 39.108 94.2631 38.964 93.9751 38.748C93.6871 38.532 93.4591 38.244 93.2911 37.884C93.1471 37.5 93.0751 37.008 93.0751 36.408V25.536C93.0751 24.888 93.2071 24.372 93.4711 23.988C93.7591 23.604 94.1431 23.244 94.6231 22.908C95.4391 22.332 96.4471 21.864 97.6471 21.504C98.8711 21.144 100.143 20.964 101.463 20.964ZM131.548 20.964C132.988 20.964 134.32 21.156 135.544 21.54C136.792 21.9 137.86 22.464 138.748 23.232C139.636 24 140.332 24.972 140.836 26.148C141.34 27.3 141.592 28.68 141.592 30.288C141.592 31.824 141.376 33.168 140.944 34.32C140.512 35.472 139.9 36.444 139.108 37.236C138.316 38.004 137.356 38.58 136.228 38.964C135.124 39.348 133.888 39.54 132.52 39.54C131.488 39.54 130.528 39.384 129.64 39.072V45.048C129.4 45.12 129.016 45.192 128.488 45.264C127.96 45.36 127.42 45.408 126.868 45.408C126.34 45.408 125.86 45.372 125.428 45.3C125.02 45.228 124.672 45.084 124.384 44.868C124.096 44.652 123.88 44.352 123.736 43.968C123.592 43.608 123.52 43.128 123.52 42.528V25.248C123.52 24.6 123.652 24.072 123.916 23.664C124.204 23.256 124.588 22.884 125.068 22.548C125.812 22.068 126.736 21.684 127.84 21.396C128.944 21.108 130.18 20.964 131.548 20.964ZM131.62 34.716C134.092 34.716 135.328 33.24 135.328 30.288C135.328 28.752 135.016 27.612 134.392 26.868C133.792 26.124 132.916 25.752 131.764 25.752C131.308 25.752 130.9 25.812 130.54 25.932C130.18 26.028 129.868 26.148 129.604 26.292V34.212C129.892 34.356 130.204 34.476 130.54 34.572C130.876 34.668 131.236 34.716 131.62 34.716ZM150.807 38.964C150.543 39.012 150.147 39.072 149.619 39.144C149.115 39.24 148.599 39.288 148.071 39.288C147.543 39.288 147.063 39.252 146.631 39.18C146.223 39.108 145.875 38.964 145.587 38.748C145.299 38.532 145.071 38.244 144.903 37.884C144.759 37.5 144.687 37.008 144.687 36.408V15.528C144.951 15.48 145.335 15.42 145.839 15.348C146.367 15.252 146.895 15.204 147.423 15.204C147.951 15.204 148.419 15.24 148.827 15.312C149.259 15.384 149.619 15.528 149.907 15.744C150.195 15.96 150.411 16.26 150.555 16.644C150.723 17.004 150.807 17.484 150.807 18.084V38.964ZM157.405 34.536C157.141 33.936 156.853 33.264 156.541 32.52C156.253 31.776 155.941 30.924 155.605 29.964C155.293 29.004 154.957 27.912 154.597 26.688C154.261 25.44 153.901 24.012 153.517 22.404C153.853 22.068 154.297 21.78 154.849 21.54C155.425 21.276 156.049 21.144 156.721 21.144C157.561 21.144 158.257 21.324 158.809 21.684C159.361 22.02 159.769 22.668 160.033 23.628L162.877 33.528H163.021C163.309 32.712 163.585 31.824 163.849 30.864C164.137 29.904 164.413 28.92 164.677 27.912C164.941 26.88 165.181 25.86 165.397 24.852C165.637 23.82 165.841 22.812 166.009 21.828C166.873 21.372 167.821 21.144 168.853 21.144C169.693 21.144 170.389 21.324 170.941 21.684C171.493 22.044 171.769 22.668 171.769 23.556C171.769 24.204 171.685 24.96 171.517 25.824C171.349 26.664 171.121 27.564 170.833 28.524C170.569 29.484 170.245 30.48 169.861 31.512C169.501 32.52 169.117 33.516 168.709 34.5C168.301 35.484 167.881 36.42 167.449 37.308C167.017 38.172 166.597 38.952 166.189 39.648C165.517 40.824 164.893 41.784 164.317 42.528C163.741 43.272 163.189 43.848 162.661 44.256C162.133 44.688 161.605 44.976 161.077 45.12C160.549 45.288 159.997 45.372 159.421 45.372C158.413 45.372 157.597 45.072 156.973 44.472C156.349 43.872 155.977 43.092 155.857 42.132C156.625 41.532 157.393 40.86 158.161 40.116C158.929 39.396 159.625 38.652 160.249 37.884C159.841 37.764 159.397 37.488 158.917 37.056C158.461 36.6 157.957 35.76 157.405 34.536Z" fill="#7F0CF3"/>
<path d="M186.089 21.576C184.241 21.576 182.825 22.14 181.841 23.268C180.857 24.396 180.365 25.992 180.365 28.056C180.365 30.144 180.905 31.752 181.985 32.88C183.089 34.008 184.565 34.572 186.413 34.572C187.397 34.572 188.225 34.44 188.897 34.176C189.593 33.912 190.253 33.612 190.877 33.276C191.285 33.612 191.597 34.02 191.813 34.5C192.053 34.956 192.173 35.496 192.173 36.12C192.173 37.104 191.621 37.944 190.517 38.64C189.437 39.312 187.781 39.648 185.549 39.648C183.941 39.648 182.429 39.42 181.013 38.964C179.597 38.508 178.361 37.812 177.305 36.876C176.249 35.916 175.409 34.716 174.785 33.276C174.185 31.812 173.885 30.072 173.885 28.056C173.885 26.184 174.173 24.54 174.749 23.124C175.349 21.684 176.153 20.472 177.161 19.488C178.193 18.504 179.393 17.76 180.761 17.256C182.129 16.752 183.593 16.5 185.153 16.5C187.361 16.5 189.065 16.86 190.265 17.58C191.489 18.3 192.101 19.224 192.101 20.352C192.101 20.976 191.945 21.516 191.633 21.972C191.321 22.428 190.961 22.788 190.553 23.052C189.929 22.644 189.257 22.296 188.537 22.008C187.841 21.72 187.025 21.576 186.089 21.576ZM212.714 30.252C212.714 31.74 212.486 33.072 212.03 34.248C211.574 35.4 210.926 36.372 210.086 37.164C209.27 37.956 208.286 38.556 207.134 38.964C205.982 39.372 204.698 39.576 203.282 39.576C201.866 39.576 200.582 39.36 199.43 38.928C198.278 38.496 197.282 37.884 196.442 37.092C195.626 36.276 194.99 35.292 194.534 34.14C194.078 32.988 193.85 31.692 193.85 30.252C193.85 28.836 194.078 27.552 194.534 26.4C194.99 25.248 195.626 24.276 196.442 23.484C197.282 22.668 198.278 22.044 199.43 21.612C200.582 21.18 201.866 20.964 203.282 20.964C204.698 20.964 205.982 21.192 207.134 21.648C208.286 22.08 209.27 22.704 210.086 23.52C210.926 24.312 211.574 25.284 212.03 26.436C212.486 27.588 212.714 28.86 212.714 30.252ZM200.114 30.252C200.114 31.716 200.39 32.844 200.942 33.636C201.518 34.404 202.31 34.788 203.318 34.788C204.326 34.788 205.094 34.392 205.622 33.6C206.174 32.808 206.45 31.692 206.45 30.252C206.45 28.812 206.174 27.708 205.622 26.94C205.07 26.148 204.29 25.752 203.282 25.752C202.274 25.752 201.494 26.148 200.942 26.94C200.39 27.708 200.114 28.812 200.114 30.252ZM215.7 21.756C215.94 21.684 216.312 21.612 216.816 21.54C217.344 21.468 217.884 21.432 218.436 21.432C218.964 21.432 219.432 21.468 219.84 21.54C220.272 21.612 220.632 21.756 220.92 21.972C221.208 22.188 221.424 22.488 221.568 22.872C221.736 23.232 221.82 23.712 221.82 24.312V32.052C221.82 33.036 222.06 33.744 222.54 34.176C223.02 34.584 223.716 34.788 224.628 34.788C225.18 34.788 225.624 34.74 225.96 34.644C226.32 34.548 226.596 34.452 226.788 34.356V21.756C227.028 21.684 227.4 21.612 227.904 21.54C228.432 21.468 228.972 21.432 229.524 21.432C230.052 21.432 230.52 21.468 230.928 21.54C231.36 21.612 231.72 21.756 232.008 21.972C232.296 22.188 232.512 22.488 232.656 22.872C232.824 23.232 232.908 23.712 232.908 24.312V35.256C232.908 36.456 232.404 37.356 231.396 37.956C230.556 38.484 229.548 38.88 228.372 39.144C227.22 39.432 225.96 39.576 224.592 39.576C223.296 39.576 222.096 39.432 220.992 39.144C219.912 38.856 218.976 38.412 218.184 37.812C217.392 37.212 216.78 36.444 216.348 35.508C215.916 34.548 215.7 33.396 215.7 32.052V21.756ZM247.741 27.912C247.741 27.168 247.525 26.628 247.093 26.292C246.685 25.932 246.121 25.752 245.401 25.752C244.921 25.752 244.441 25.812 243.961 25.932C243.505 26.052 243.109 26.232 242.773 26.472V38.964C242.533 39.036 242.149 39.108 241.621 39.18C241.117 39.252 240.589 39.288 240.037 39.288C239.509 39.288 239.029 39.252 238.597 39.18C238.189 39.108 237.841 38.964 237.553 38.748C237.265 38.532 237.037 38.244 236.869 37.884C236.725 37.5 236.653 37.008 236.653 36.408V25.608C236.653 24.96 236.785 24.432 237.049 24.024C237.337 23.616 237.721 23.244 238.201 22.908C239.017 22.332 240.037 21.864 241.261 21.504C242.509 21.144 243.889 20.964 245.401 20.964C248.113 20.964 250.201 21.564 251.665 22.764C253.129 23.94 253.861 25.584 253.861 27.696V38.964C253.621 39.036 253.237 39.108 252.709 39.18C252.205 39.252 251.677 39.288 251.125 39.288C250.597 39.288 250.117 39.252 249.685 39.18C249.277 39.108 248.929 38.964 248.641 38.748C248.353 38.532 248.125 38.244 247.957 37.884C247.813 37.5 247.741 37.008 247.741 36.408V27.912ZM272.402 33.78C272.402 35.604 271.718 37.032 270.35 38.064C268.982 39.096 266.966 39.612 264.302 39.612C263.294 39.612 262.358 39.54 261.494 39.396C260.63 39.252 259.886 39.036 259.262 38.748C258.662 38.436 258.182 38.052 257.822 37.596C257.486 37.14 257.318 36.6 257.318 35.976C257.318 35.4 257.438 34.92 257.678 34.536C257.918 34.128 258.206 33.792 258.542 33.528C259.238 33.912 260.03 34.26 260.918 34.572C261.83 34.86 262.874 35.004 264.05 35.004C264.794 35.004 265.358 34.896 265.742 34.68C266.15 34.464 266.354 34.176 266.354 33.816C266.354 33.48 266.21 33.216 265.922 33.024C265.634 32.832 265.154 32.676 264.482 32.556L263.402 32.34C261.314 31.932 259.754 31.296 258.722 30.432C257.714 29.544 257.21 28.284 257.21 26.652C257.21 25.764 257.402 24.96 257.786 24.24C258.17 23.52 258.71 22.92 259.406 22.44C260.102 21.96 260.93 21.588 261.89 21.324C262.874 21.06 263.954 20.928 265.13 20.928C266.018 20.928 266.846 21 267.614 21.144C268.406 21.264 269.09 21.456 269.666 21.72C270.242 21.984 270.698 22.332 271.034 22.764C271.37 23.172 271.538 23.664 271.538 24.24C271.538 24.792 271.43 25.272 271.214 25.68C271.022 26.064 270.77 26.388 270.458 26.652C270.266 26.532 269.978 26.412 269.594 26.292C269.21 26.148 268.79 26.028 268.334 25.932C267.878 25.812 267.41 25.716 266.93 25.644C266.474 25.572 266.054 25.536 265.67 25.536C264.878 25.536 264.266 25.632 263.834 25.824C263.402 25.992 263.186 26.268 263.186 26.652C263.186 26.916 263.306 27.132 263.546 27.3C263.786 27.468 264.242 27.624 264.914 27.768L266.03 28.02C268.334 28.548 269.966 29.28 270.926 30.216C271.91 31.128 272.402 32.316 272.402 33.78ZM284.788 39.576C283.372 39.576 282.052 39.384 280.828 39C279.628 38.592 278.572 37.992 277.66 37.2C276.772 36.408 276.064 35.412 275.536 34.212C275.032 33.012 274.78 31.608 274.78 30C274.78 28.416 275.032 27.06 275.536 25.932C276.064 24.78 276.748 23.844 277.588 23.124C278.428 22.38 279.388 21.84 280.468 21.504C281.548 21.144 282.652 20.964 283.78 20.964C285.052 20.964 286.204 21.156 287.236 21.54C288.292 21.924 289.192 22.452 289.936 23.124C290.704 23.796 291.292 24.6 291.7 25.536C292.132 26.472 292.348 27.492 292.348 28.596C292.348 29.412 292.12 30.036 291.664 30.468C291.208 30.9 290.572 31.176 289.756 31.296L280.864 32.628C281.128 33.42 281.668 34.02 282.484 34.428C283.3 34.812 284.236 35.004 285.292 35.004C286.276 35.004 287.2 34.884 288.064 34.644C288.952 34.38 289.672 34.08 290.224 33.744C290.608 33.984 290.932 34.32 291.196 34.752C291.46 35.184 291.592 35.64 291.592 36.12C291.592 37.2 291.088 38.004 290.08 38.532C289.312 38.94 288.448 39.216 287.488 39.36C286.528 39.504 285.628 39.576 284.788 39.576ZM283.78 25.428C283.204 25.428 282.7 25.524 282.268 25.716C281.86 25.908 281.524 26.16 281.26 26.472C280.996 26.76 280.792 27.096 280.648 27.48C280.528 27.84 280.456 28.212 280.432 28.596L286.588 27.588C286.516 27.108 286.252 26.628 285.796 26.148C285.34 25.668 284.668 25.428 283.78 25.428ZM301.522 38.964C301.258 39.012 300.862 39.072 300.334 39.144C299.83 39.24 299.314 39.288 298.786 39.288C298.258 39.288 297.778 39.252 297.346 39.18C296.938 39.108 296.59 38.964 296.302 38.748C296.014 38.532 295.786 38.244 295.618 37.884C295.474 37.5 295.402 37.008 295.402 36.408V15.528C295.666 15.48 296.05 15.42 296.554 15.348C297.082 15.252 297.61 15.204 298.138 15.204C298.666 15.204 299.134 15.24 299.542 15.312C299.974 15.384 300.334 15.528 300.622 15.744C300.91 15.96 301.126 16.26 301.27 16.644C301.438 17.004 301.522 17.484 301.522 18.084V38.964Z" fill="#333333"/>
<path d="M42 52C12.0742 30.3866 18.8039 19.9084 42 2" stroke="#333333" stroke-width="3"/>
<path d="M22 52C-7.9258 30.3866 -1.19608 19.9084 22 2" stroke="#7F0CF3" stroke-width="3"/>
</svg>
